<?xml version="1.0" standalone="no"?>
<!DOCTYPE svg PUBLIC "-//W3C//DTD SVG 20010904//EN"
 "http://www.w3.org/TR/2001/REC-SVG-20010904/DTD/svg10.dtd">
<svg version="1.0" xmlns="http://www.w3.org/2000/svg"
 width="938.000000pt" height="938.000000pt" viewBox="0 0 938.000000 938.000000"
 preserveAspectRatio="xMidYMid meet">

<g transform="translate(0.000000,938.000000) scale(0.100000,-0.100000)"
fill="#000000" stroke="none">
<path d="M0 4690 l0 -4690 4690 0 4690 0 0 4690 0 4690 -4690 0 -4690 0 0
-4690z m3745 2920 c133 -34 218 -83 320 -185 75 -74 98 -105 132 -175 189
-390 -1 -841 -412 -977 -70 -23 -96 -27 -210 -27 -114 0 -140 4 -210 27 -213
71 -378 235 -452 449 -18 53 -26 102 -30 178 -6 137 12 226 73 350 63 127 179
246 297 303 160 78 333 98 492 57z m2194 4 c244 -60 431 -233 508 -469 21 -66
26 -100 27 -195 1 -139 -11 -194 -71 -320 -39 -81 -58 -107 -137 -185 -133
-131 -262 -191 -441 -202 -323 -20 -620 188 -713 502 -30 101 -34 257 -9 355
81 313 353 528 671 529 60 1 126 -5 165 -15z m-2203 -1528 c117 -21 180 -41
275 -89 184 -92 323 -227 421 -407 36 -67 78 -171 78 -194 0 -8 -28 -20 -72
-31 -300 -72 -563 -270 -718 -541 -57 -99 -114 -272 -130 -392 -24 -175 6
-415 70 -559 20 -47 18 -45 -81 60 -103 109 -208 196 -309 257 -115 69 -114
49 -13 153 141 146 224 288 277 471 64 219 59 440 -15 660 -58 174 -151 319
-286 452 -40 38 -73 73 -73 76 0 8 91 43 160 63 128 35 287 44 416 21z m2275
-15 c41 -11 107 -33 145 -50 l69 -31 -90 -93 c-190 -193 -290 -407 -316 -673
-32 -327 81 -641 318 -885 l84 -87 -66 -37 c-106 -59 -256 -177 -343 -270
l-80 -86 24 76 c193 608 -147 1245 -760 1420 -48 14 -100 25 -115 25 -15 0
-30 3 -34 6 -7 8 26 104 61 174 139 277 390 466 699 525 103 19 301 13 404
-14z m-3341 -142 c226 -57 436 -226 539 -434 66 -132 85 -218 85 -375 0 -147
-12 -209 -65 -333 -159 -376 -601 -586 -990 -471 -286 84 -488 283 -579 569
-30 94 -39 299 -17 401 75 352 359 614 719 664 83 11 215 2 308 -21z m4440 5
c134 -30 214 -68 329 -155 370 -278 434 -814 143 -1181 -159 -200 -396 -311
-657 -310 -385 1 -704 249 -806 627 -33 123 -31 309 5 428 51 171 134 300 260
408 204 174 469 241 726 183z m-2191 -844 c276 -78 490 -290 581 -575 31 -97
39 -282 16 -391 -69 -345 -336 -605 -681 -665 -98 -17 -282 -7 -370 21 -349
109 -581 401 -602 755 -15 269 91 513 304 695 97 83 264 160 392 180 89 14
275 4 360 -20z m-2189 -974 c366 -83 667 -315 838 -646 45 -86 102 -234 102
-264 0 -7 -35 -49 -78 -93 -235 -244 -394 -588 -419 -904 -3 -43 -9 -82 -12
-88 -8 -12 -156 -35 -322 -50 -243 -23 -692 -13 -935 19 -293 39 -587 139
-662 224 l-33 38 3 387 c4 386 4 386 32 481 35 124 129 314 204 415 295 399
803 589 1282 481z m4431 8 c445 -84 820 -416 959 -849 51 -161 55 -202 55
-577 0 -336 -1 -347 -21 -375 -80 -107 -451 -216 -865 -254 -201 -18 -708 -7
-899 20 -85 12 -155 23 -157 24 -1 2 -7 45 -13 97 -21 184 -73 367 -147 515
-75 148 -212 337 -318 434 l-46 43 21 70 c79 260 263 505 501 666 134 90 352
173 519 197 110 16 294 11 411 -11z m-2261 -835 c239 -36 488 -162 669 -338
171 -166 286 -366 348 -606 25 -97 26 -112 30 -460 l5 -360 -24 -35 c-17 -26
-49 -48 -128 -87 -150 -75 -320 -120 -600 -160 -183 -26 -815 -26 -1010 0
-387 52 -694 162 -736 263 -21 50 -20 588 2 732 59 400 307 744 670 929 247
126 495 165 774 122z"/>
</g>
</svg>
