<?xml version="1.0" standalone="no"?>
<!DOCTYPE svg PUBLIC "-//W3C//DTD SVG 20010904//EN"
 "http://www.w3.org/TR/2001/REC-SVG-20010904/DTD/svg10.dtd">
<svg version="1.0" xmlns="http://www.w3.org/2000/svg"
 width="512.000000pt" height="512.000000pt" viewBox="0 0 512.000000 512.000000"
 preserveAspectRatio="xMidYMid meet">

<g transform="translate(0.000000,512.000000) scale(0.100000,-0.100000)"
fill="#000000" stroke="none">
<path d="M1470 4653 c-71 -36 -71 -36 -68 -513 3 -456 3 -453 55 -481 12 -7
38 -15 57 -18 l35 -6 -40 -94 c-21 -52 -38 -96 -36 -98 2 -2 57 42 121 97
l118 100 124 0 124 0 0 65 c0 73 16 114 52 133 17 9 154 13 533 15 l510 2 0
372 0 373 -33 32 -32 33 -743 3 c-692 2 -744 1 -777 -15z m498 -387 c47 -46
28 -131 -36 -162 -103 -48 -196 84 -117 166 15 16 37 31 49 32 33 6 78 -10
104 -36z m350 -1 c47 -54 13 -154 -57 -170 -61 -13 -131 43 -131 105 0 95 124
137 188 65z m326 8 c53 -53 38 -141 -30 -169 -45 -19 -79 -12 -116 24 -55 51
-28 151 45 170 44 11 72 4 101 -25z"/>
<path d="M723 3806 c-230 -75 -339 -329 -235 -549 137 -293 567 -293 704 0 94
200 15 429 -180 525 -56 28 -77 33 -156 35 -57 2 -107 -2 -133 -11z"/>
<path d="M4163 3806 c-230 -75 -339 -328 -235 -549 137 -293 567 -293 704 0
96 203 11 437 -192 532 -67 31 -208 39 -277 17z"/>
<path d="M2098 3754 c-58 -31 -58 -34 -58 -494 0 -354 2 -427 15 -454 30 -64
-3 -61 699 -64 l638 -3 117 -98 c64 -55 117 -98 119 -97 1 2 -15 45 -37 97
l-39 94 46 12 c58 15 89 49 97 105 3 24 5 223 3 443 -3 433 -2 426 -59 459
-24 14 -103 16 -771 16 -638 -1 -747 -3 -770 -16z m505 -404 c61 -68 16 -170
-76 -170 -107 0 -145 128 -57 188 46 31 94 24 133 -18z m328 17 c88 -59 48
-187 -58 -187 -138 0 -134 205 3 209 12 1 36 -9 55 -22z m317 12 c76 -26 88
-136 21 -183 -56 -39 -149 -2 -163 64 -9 46 17 98 56 115 40 17 47 18 86 4z"/>
<path d="M673 3010 c-114 -23 -235 -121 -267 -216 -15 -46 -16 -103 -14 -545
l3 -494 30 -54 c36 -65 109 -123 191 -152 55 -19 80 -21 351 -20 160 1 294 -2
297 -7 3 -5 28 -206 55 -448 28 -241 55 -455 61 -475 35 -127 197 -172 293
-81 41 39 57 74 57 129 0 26 -27 284 -61 573 -44 378 -66 537 -79 567 -12 27
-33 52 -61 70 -42 28 -43 28 -231 31 l-188 3 0 210 c0 146 3 209 11 209 6 0
28 -14 49 -30 106 -84 263 -123 412 -103 93 13 227 53 275 82 87 54 87 198 0
251 -54 33 -89 34 -174 7 -253 -83 -324 -51 -549 249 -46 61 -98 125 -116 143
-89 87 -219 125 -345 101z"/>
<path d="M4272 3004 c-110 -29 -163 -74 -287 -239 -108 -145 -165 -206 -222
-243 -91 -58 -161 -59 -326 -5 -85 27 -120 26 -174 -7 -87 -53 -87 -197 0
-251 48 -29 182 -69 275 -82 149 -20 306 19 412 103 21 16 43 30 49 30 8 0 11
-63 11 -209 l0 -210 -188 -3 c-188 -3 -189 -3 -231 -31 -28 -18 -49 -43 -61
-70 -13 -30 -35 -187 -79 -567 -34 -289 -61 -547 -61 -573 0 -55 16 -90 57
-129 96 -91 258 -46 293 81 6 20 33 234 61 475 27 242 52 443 55 448 3 5 137
8 297 7 271 -1 296 1 351 20 82 29 155 87 191 152 l30 54 3 494 c3 565 4 554
-78 644 -54 59 -132 102 -211 117 -68 13 -103 12 -167 -6z"/>
<path d="M121 2839 c-45 -9 -82 -38 -103 -80 -17 -31 -18 -88 -18 -752 0 -697
1 -719 20 -757 11 -21 27 -43 36 -48 14 -8 14 -15 -5 -76 -19 -61 -21 -93 -21
-318 0 -272 4 -293 57 -332 36 -27 104 -27 140 0 59 43 63 65 63 330 0 333
-17 317 340 312 237 -3 250 -6 281 -52 11 -16 15 -81 19 -276 6 -285 7 -292
75 -324 50 -24 96 -14 141 30 l35 36 -3 291 c-3 261 -5 296 -21 326 l-19 34
25 21 c58 49 72 125 34 190 -43 76 -41 76 -489 76 l-397 0 -3 633 c-3 573 -5
635 -20 663 -31 56 -101 87 -167 73z"/>
<path d="M4935 2840 c-43 -9 -83 -38 -103 -74 -15 -28 -17 -90 -20 -663 l-3
-633 -397 0 c-448 0 -446 0 -489 -76 -38 -65 -24 -141 34 -190 l25 -21 -19
-34 c-16 -30 -18 -64 -21 -322 -3 -276 -2 -288 17 -316 42 -59 118 -73 179
-33 44 29 47 45 52 312 5 268 7 280 54 311 27 18 452 26 507 10 73 -22 73 -23
79 -311 5 -241 6 -260 26 -287 29 -40 85 -66 128 -58 43 9 94 57 101 99 4 18
5 149 3 292 -4 226 -7 265 -23 303 -18 40 -18 44 -2 53 9 5 26 27 37 48 19 38
20 60 20 757 0 664 -1 721 -18 752 -30 61 -101 95 -167 81z"/>
<path d="M1610 2121 c-101 -53 -107 -194 -12 -253 31 -19 54 -23 159 -26 l123
-4 0 -649 0 -649 650 0 650 0 0 649 0 649 125 4 c134 4 154 11 198 69 50 68
22 170 -58 209 -40 20 -62 20 -921 20 -837 0 -881 -1 -914 -19z"/>
</g>
</svg>
