<?xml version="1.0" standalone="no"?>
<!DOCTYPE svg PUBLIC "-//W3C//DTD SVG 20010904//EN"
 "http://www.w3.org/TR/2001/REC-SVG-20010904/DTD/svg10.dtd">
<svg version="1.0" xmlns="http://www.w3.org/2000/svg"
 width="938.000000pt" height="938.000000pt" viewBox="0 0 938.000000 938.000000"
 preserveAspectRatio="xMidYMid meet">

<g transform="translate(0.000000,938.000000) scale(0.100000,-0.100000)"
fill="#000000" stroke="none">
<path d="M848 8271 c-129 -42 -223 -123 -284 -246 l-39 -79 0 -1726 0 -1726
39 -79 c63 -127 170 -217 301 -254 29 -8 1075 -11 3829 -11 l3788 0 69 24
c141 49 252 166 294 309 13 47 15 250 13 1757 l-3 1705 -37 78 c-48 101 -120
172 -225 224 l-77 38 -3805 2 c-3661 2 -3808 1 -3863 -16z m7639 -237 c55 -20
117 -90 132 -149 8 -31 11 -507 11 -1673 0 -1826 6 -1687 -74 -1763 -78 -75
275 -69 -3866 -69 -4161 0 -3790 -7 -3868 73 -77 79 -72 -51 -72 1764 0 1152
3 1637 11 1668 13 50 66 117 113 143 29 16 256 17 3781 22 2063 3 3759 4 3770
2 11 -2 39 -10 62 -18z"/>
<path d="M1222 7591 c-9 -5 -11 -338 -10 -1377 l3 -1369 3477 -3 3478 -2 0
1375 0 1375 -3442 1 c-1894 0 -3455 2 -3469 4 -14 2 -31 0 -37 -4z m1008 -416
c392 -59 669 -290 783 -651 53 -169 60 -379 17 -554 -26 -104 -101 -264 -164
-347 -127 -167 -306 -283 -534 -345 -63 -17 -115 -22 -296 -26 -248 -5 -276 0
-338 56 -82 74 -78 17 -78 911 0 788 0 795 21 838 24 49 81 101 130 119 49 18
342 17 459 -1z m1945 -7 c78 -43 125 -123 125 -210 0 -68 -26 -123 -78 -170
-55 -50 -92 -58 -264 -58 l-148 0 0 -139 0 -138 83 -5 c99 -5 154 -30 196 -88
66 -91 63 -209 -6 -290 -51 -59 -100 -80 -195 -80 l-78 0 0 -140 0 -140 138 0
c175 0 230 -14 289 -76 113 -117 66 -322 -86 -373 -22 -7 -135 -11 -328 -11
-324 0 -338 2 -402 63 -18 18 -42 50 -52 72 -18 38 -19 82 -19 835 0 751 1
797 19 836 21 46 91 110 136 124 16 5 167 8 335 7 263 -2 309 -4 335 -19z
m708 10 c84 -25 115 -69 272 -385 80 -161 149 -293 153 -293 4 0 76 137 160
305 123 245 159 309 187 331 96 73 214 71 297 -4 82 -74 78 -16 78 -913 l0
-797 -28 -53 c-20 -39 -41 -62 -77 -84 -43 -27 -57 -30 -126 -30 -70 0 -81 3
-120 30 -55 39 -85 82 -98 146 -6 28 -11 161 -11 297 l-1 247 -39 -76 c-21
-42 -52 -88 -69 -102 -44 -36 -124 -61 -177 -53 -93 12 -150 60 -205 167 -16
33 -30 59 -32 59 -1 0 -2 -120 -2 -268 0 -285 -2 -302 -53 -369 -37 -50 -88
-75 -162 -81 -99 -7 -177 35 -223 122 l-22 41 -3 769 c-2 522 1 786 8 821 28
134 160 213 293 173z m2332 -15 c242 -55 428 -224 507 -461 l32 -97 4 -363 c3
-340 2 -367 -17 -444 -24 -95 -75 -200 -134 -277 -52 -68 -166 -160 -249 -200
-185 -91 -436 -95 -616 -11 -197 92 -342 261 -402 470 -20 67 -23 106 -27 352
-8 406 9 527 95 693 48 91 163 209 255 260 169 93 366 121 552 78z"/>
<path d="M2080 6221 l0 -511 41 0 c23 0 68 7 102 16 232 60 377 249 377 494 0
272 -188 478 -462 507 l-58 6 0 -512z"/>
<path d="M6963 6716 c-88 -28 -150 -88 -173 -167 -6 -19 -11 -165 -11 -336 0
-289 1 -304 22 -353 84 -196 378 -199 475 -4 18 36 19 63 19 364 0 316 -1 326
-22 366 -30 57 -97 111 -157 129 -60 18 -97 18 -153 1z"/>
<path d="M5811 4075 c-173 -49 -301 -182 -341 -354 -28 -121 -30 -114 361
-1288 199 -599 375 -1115 391 -1147 93 -185 324 -285 533 -230 71 18 124 47
185 102 l45 40 215 -212 c195 -193 222 -217 294 -252 79 -39 81 -39 200 -39
118 0 123 1 196 36 71 34 96 58 474 437 219 220 411 420 427 444 91 135 92
345 5 492 -14 23 -117 133 -230 246 -113 113 -206 209 -206 213 0 5 18 29 40
54 70 79 110 193 110 306 -1 160 -100 327 -238 400 -29 16 -544 193 -1145 394
-1030 344 -1097 365 -1177 369 -57 3 -103 -1 -139 -11z m1249 -587 c597 -198
1099 -370 1115 -381 39 -27 52 -43 75 -92 24 -49 26 -141 5 -192 -9 -20 -65
-86 -125 -148 l-110 -111 276 -274 c151 -151 287 -295 302 -320 34 -56 37
-154 8 -210 -10 -19 -188 -205 -395 -414 -452 -455 -456 -457 -598 -405 -53
20 -82 46 -343 305 l-285 283 -111 -109 c-121 -118 -161 -142 -240 -141 -71 0
-127 25 -172 76 -34 40 -63 121 -399 1131 -397 1192 -387 1155 -340 1244 42
80 138 133 220 122 18 -2 520 -166 1117 -364z"/>
<path d="M6510 2605 c121 -362 222 -660 225 -663 3 -3 34 22 68 56 90 89 161
110 263 75 43 -14 85 -52 339 -304 l291 -289 189 190 190 190 -285 285 c-157
156 -293 299 -302 317 -27 49 -32 94 -18 156 11 48 22 66 78 124 38 40 62 72
56 77 -5 4 -297 104 -649 221 -352 117 -645 215 -652 217 -7 3 87 -291 207
-652z"/>
</g>
</svg>
